<svg width="482" height="278" viewBox="0 0 482 278" fill="none" xmlns="http://www.w3.org/2000/svg">
<g id="Group 4">
<path id="Vector 1" d="M323 87.5H157.5L159 211L323 212V87.5Z" stroke="black" stroke-width="6" stroke-linejoin="round"/>
<path id="Vector" d="M58.2222 58.1879C115.722 56.5212 232.322 53.6879 238.722 55.6879C246.722 58.1879 409.222 56.1879 417.222 61.1879C423.622 65.1879 427.556 70.1879 428.722 72.1879V93.1879L430.222 161.188C427.389 181.521 421.322 222.388 419.722 223.188C417.722 224.188 408.222 232.688 404.722 232.688C401.922 232.688 400.222 236.021 399.722 237.688C398.389 239.521 394.622 243.188 390.222 243.188C384.722 243.188 386.722 246.188 378.222 243.188C369.722 240.188 370.722 239.688 366.222 237.688C362.622 236.088 358.056 237.021 356.222 237.688C329.056 240.021 270.649 241.188 253.222 241.188C231.222 241.188 175.222 239.688 175.222 239.688L109.222 234.188L99.2222 239.688C95.7222 240.688 88.3222 242.388 86.7222 241.188C84.7222 239.688 74.7222 235.688 73.7222 232.688C72.9222 230.288 67.0556 227.688 64.2222 226.688C61.8889 225.855 56.9222 222.988 55.7222 218.188C54.2222 212.188 48.7222 175.688 48.2222 165.688C47.7222 155.688 48.2222 123.188 48.2222 103.688C48.2222 88.0879 49.2222 74.8546 49.7222 70.1879C50.2222 67.5405 52.1222 61.8341 55.7222 60.1879M55.5 61L59 58.5" stroke="black" stroke-width="6" stroke-linejoin="round"/>
<path id="Vector 2" d="M17.5 13.5C19.5 11.1 27.6667 6.5 31.5 4.5L37 3H67L68.5 4L71 5L95.5 6L97 4V3H99.5H107L110 5L136 6L137 4L138.5 3H146.5L148 5H177L178.5 3H185L186.5 4V6H217V5L218.5 4L264 3L265 6H298L299 3H304.5L305.5 6H337.5L339 4H345L346.5 6H378V4H387.5V6H418.5V4H440C447.5 4 456 7.5 461 11C466 14.5 468 18.5 471 24.5C473.4 29.3 477 43.5 478.5 50V182V187.5L475 190C475 190.833 474.8 192.7 474 193.5C473.2 194.3 474.333 195.167 475 195.5L478.5 199.5V210L477.5 211L474 214L475 218.5L478.5 222V240C478.5 239.6 475.5 242.167 474 243.5V247V251.5L460.5 263.5H457.5H455.5H453L451.5 265.5L450.5 268.5L435 273.5H428.5L427 272H424L419.5 274.5L412 273.5L408.5 274.5L404 273.5H401L399.5 272C399.333 271.5 398.9 270.5 398.5 270.5H397H396L393 272L391 273.5L384.5 272.5H379.5L377.5 272L376 270.5L374 270H371.5L370 270.5L368.5 272H364.5C325.833 270.333 247.7 267 244.5 267C241.3 267 175.833 267.667 143.5 268L116 269.5L112.5 268L111 267H107.5L105 269.5L89.5 271L87.5 269.5H84L80 272H63.5L61 271C60.3333 270.5 58.8 269.5 58 269.5H54.5C54.3333 270 53.4 271 51 271C48 271 40 268.5 38 268C36.4 267.6 33.3333 266.167 32 265.5L31 261.5C29.5 260.667 26.2 258.8 25 258C23.8 257.2 21.1667 258.333 20 259L11.5 251L10 248V245.5C10 244 9.8 240.9 9 240.5C8 240 7 238 5.5 237.5C4.3 237.1 4.33333 235.667 4.5 235V224C4.5 222.333 4.7 218.8 5.5 218L9 214.5C9 212.833 8.6 209.2 7 208C5.4 206.8 4.66667 205.833 4.5 205.5V198.5C4.66667 197.333 5.4 194.4 7 192C8.6 189.6 7.66667 187.333 7 186.5L3.5 182.5C4.66667 137.167 6.9 45.8 6.5 43C6 39.5 7 33 10 25.5C13 18 15 16.5 17.5 13.5Z" stroke="black" stroke-width="6" stroke-linejoin="round"/>
<path id="Vector 8" d="M475 243L478.5 239.5V231" stroke="black" stroke-width="6" stroke-linejoin="round"/>
<g id="Group 1">
<g id="button">
<circle id="Ellipse 1" cx="76.5" cy="24.5" r="4.5" fill="#0F0000"/>
<path id="Ellipse 2" d="M86 24.5C86 29.7467 81.7467 34 76.5 34C71.2533 34 67 29.7467 67 24.5C67 19.2533 71.2533 15 76.5 15C81.7467 15 86 19.2533 86 24.5ZM69.5392 24.5C69.5392 28.3443 72.6557 31.4608 76.5 31.4608C80.3443 31.4608 83.4608 28.3443 83.4608 24.5C83.4608 20.6557 80.3443 17.5392 76.5 17.5392C72.6557 17.5392 69.5392 20.6557 69.5392 24.5Z" fill="black"/>
<path id="Vector 3" d="M74 12L73.5 13.5H72.5L71.5 12.5L69.5 14L70 15.5L68.5 16.5L67 16L66 17.5L67.5 18.5L66 20H64V23H66V25.5H64L65 28H66V30.5H65L66 32.5L67.5 31.5L68.5 32.5V34.5L70.5 35.5L72 34.5L72.5 35.5L72 37L74 38L75 36L77.5 36.5L78.5 38.5H80.5V36.5L82 36L83.5 37L85.5 36L84.5 34.5L85.5 33.5L87 34.5L89 32.5L88 30.5V29H91L90 26.5L89 25.5V24H91V23L90 21.5H89L88.5 20L90 19.5L89 17.5L88 16.5H87H86L87 15.5L86 14L85.5 13.5H83.5H82V12.5V12L81 11H79.5L78.5 12.5L77.5 12L76.5 11L74 12Z" stroke="black" stroke-linejoin="round"/>
</g>
<g id="button_2">
<circle id="Ellipse 1_2" cx="280.5" cy="25.5" r="4.5" fill="#0F0000"/>
<path id="Ellipse 2_2" d="M290 25.5C290 30.7467 285.747 35 280.5 35C275.253 35 271 30.7467 271 25.5C271 20.2533 275.253 16 280.5 16C285.747 16 290 20.2533 290 25.5ZM273.539 25.5C273.539 29.3443 276.656 32.4608 280.5 32.4608C284.344 32.4608 287.461 29.3443 287.461 25.5C287.461 21.6557 284.344 18.5392 280.5 18.5392C276.656 18.5392 273.539 21.6557 273.539 25.5Z" fill="black"/>
<path id="Vector 3_2" d="M278 13L277.5 14.5H276.5L275.5 13.5L273.5 15L274 16.5L272.5 17.5L271 17L270 18.5L271.5 19.5L270 21H268V24H270V26.5H268L269 29H270V31.5H269L270 33.5L271.5 32.5L272.5 33.5V35.5L274.5 36.5L276 35.5L276.5 36.5L276 38L278 39L279 37L281.5 37.5L282.5 39.5H284.5V37.5L286 37L287.5 38L289.5 37L288.5 35.5L289.5 34.5L291 35.5L293 33.5L292 31.5V30H295L294 27.5L293 26.5V25H295V24L294 22.5H293L292.5 21L294 20.5L293 18.5L292 17.5H291H290L291 16.5L290 15L289.5 14.5H287.5H286V13.5V13L285 12H283.5L282.5 13.5L281.5 13L280.5 12L278 13Z" stroke="black" stroke-linejoin="round"/>
</g>
<g id="button_3">
<circle id="Ellipse 1_3" cx="117.5" cy="26.5" r="4.5" fill="#0F0000"/>
<path id="Ellipse 2_3" d="M127 26.5C127 31.7467 122.747 36 117.5 36C112.253 36 108 31.7467 108 26.5C108 21.2533 112.253 17 117.5 17C122.747 17 127 21.2533 127 26.5ZM110.539 26.5C110.539 30.3443 113.656 33.4608 117.5 33.4608C121.344 33.4608 124.461 30.3443 124.461 26.5C124.461 22.6557 121.344 19.5392 117.5 19.5392C113.656 19.5392 110.539 22.6557 110.539 26.5Z" fill="black"/>
<path id="Vector 3_3" d="M115 14L114.5 15.5H113.5L112.5 14.5L110.5 16L111 17.5L109.5 18.5L108 18L107 19.5L108.5 20.5L107 22H105V25H107V27.5H105L106 30H107V32.5H106L107 34.5L108.5 33.5L109.5 34.5V36.5L111.5 37.5L113 36.5L113.5 37.5L113 39L115 40L116 38L118.5 38.5L119.5 40.5H121.5V38.5L123 38L124.5 39L126.5 38L125.5 36.5L126.5 35.5L128 36.5L130 34.5L129 32.5V31H132L131 28.5L130 27.5V26H132V25L131 23.5H130L129.5 22L131 21.5L130 19.5L129 18.5H128H127L128 17.5L127 16L126.5 15.5H124.5H123V14.5V14L122 13H120.5L119.5 14.5L118.5 14L117.5 13L115 14Z" stroke="black" stroke-linejoin="round"/>
</g>
<g id="button_4">
<circle id="Ellipse 1_4" cx="321.5" cy="27.5" r="4.5" fill="#0F0000"/>
<path id="Ellipse 2_4" d="M331 27.5C331 32.7467 326.747 37 321.5 37C316.253 37 312 32.7467 312 27.5C312 22.2533 316.253 18 321.5 18C326.747 18 331 22.2533 331 27.5ZM314.539 27.5C314.539 31.3443 317.656 34.4608 321.5 34.4608C325.344 34.4608 328.461 31.3443 328.461 27.5C328.461 23.6557 325.344 20.5392 321.5 20.5392C317.656 20.5392 314.539 23.6557 314.539 27.5Z" fill="black"/>
<path id="Vector 3_4" d="M319 15L318.5 16.5H317.5L316.5 15.5L314.5 17L315 18.5L313.5 19.5L312 19L311 20.5L312.5 21.5L311 23H309V26H311V28.5H309L310 31H311V33.5H310L311 35.5L312.5 34.5L313.5 35.5V37.5L315.5 38.5L317 37.5L317.5 38.5L317 40L319 41L320 39L322.5 39.5L323.5 41.5H325.5V39.5L327 39L328.5 40L330.5 39L329.5 37.5L330.5 36.5L332 37.5L334 35.5L333 33.5V32H336L335 29.5L334 28.5V27H336V26L335 24.5H334L333.5 23L335 22.5L334 20.5L333 19.5H332H331L332 18.5L331 17L330.5 16.5H328.5H327V15.5V15L326 14H324.5L323.5 15.5L322.5 15L321.5 14L319 15Z" stroke="black" stroke-linejoin="round"/>
</g>
<g id="button_5">
<circle id="Ellipse 1_5" cx="158.5" cy="25.5" r="4.5" fill="#0F0000"/>
<path id="Ellipse 2_5" d="M168 25.5C168 30.7467 163.747 35 158.5 35C153.253 35 149 30.7467 149 25.5C149 20.2533 153.253 16 158.5 16C163.747 16 168 20.2533 168 25.5ZM151.539 25.5C151.539 29.3443 154.656 32.4608 158.5 32.4608C162.344 32.4608 165.461 29.3443 165.461 25.5C165.461 21.6557 162.344 18.5392 158.5 18.5392C154.656 18.5392 151.539 21.6557 151.539 25.5Z" fill="black"/>
<path id="Vector 3_5" d="M156 13L155.5 14.5H154.5L153.5 13.5L151.5 15L152 16.5L150.5 17.5L149 17L148 18.5L149.5 19.5L148 21H146V24H148V26.5H146L147 29H148V31.5H147L148 33.5L149.5 32.5L150.5 33.5V35.5L152.5 36.5L154 35.5L154.5 36.5L154 38L156 39L157 37L159.5 37.5L160.5 39.5H162.5V37.5L164 37L165.5 38L167.5 37L166.5 35.5L167.5 34.5L169 35.5L171 33.5L170 31.5V30H173L172 27.5L171 26.5V25H173V24L172 22.5H171L170.5 21L172 20.5L171 18.5L170 17.5H169H168L169 16.5L168 15L167.5 14.5H165.5H164V13.5V13L163 12H161.5L160.5 13.5L159.5 13L158.5 12L156 13Z" stroke="black" stroke-linejoin="round"/>
</g>
<g id="button_6">
<circle id="Ellipse 1_6" cx="362.5" cy="26.5" r="4.5" fill="#0F0000"/>
<path id="Ellipse 2_6" d="M372 26.5C372 31.7467 367.747 36 362.5 36C357.253 36 353 31.7467 353 26.5C353 21.2533 357.253 17 362.5 17C367.747 17 372 21.2533 372 26.5ZM355.539 26.5C355.539 30.3443 358.656 33.4608 362.5 33.4608C366.344 33.4608 369.461 30.3443 369.461 26.5C369.461 22.6557 366.344 19.5392 362.5 19.5392C358.656 19.5392 355.539 22.6557 355.539 26.5Z" fill="black"/>
<path id="Vector 3_6" d="M360 14L359.5 15.5H358.5L357.5 14.5L355.5 16L356 17.5L354.5 18.5L353 18L352 19.5L353.5 20.5L352 22H350V25H352V27.5H350L351 30H352V32.5H351L352 34.5L353.5 33.5L354.5 34.5V36.5L356.5 37.5L358 36.5L358.5 37.5L358 39L360 40L361 38L363.5 38.5L364.5 40.5H366.5V38.5L368 38L369.5 39L371.5 38L370.5 36.5L371.5 35.5L373 36.5L375 34.5L374 32.5V31H377L376 28.5L375 27.5V26H377V25L376 23.5H375L374.5 22L376 21.5L375 19.5L374 18.5H373H372L373 17.5L372 16L371.5 15.5H369.5H368V14.5V14L367 13H365.5L364.5 14.5L363.5 14L362.5 13L360 14Z" stroke="black" stroke-linejoin="round"/>
</g>
<g id="button_7">
<circle id="Ellipse 1_7" cx="198.5" cy="25.5" r="4.5" fill="#0F0000"/>
<path id="Ellipse 2_7" d="M208 25.5C208 30.7467 203.747 35 198.5 35C193.253 35 189 30.7467 189 25.5C189 20.2533 193.253 16 198.5 16C203.747 16 208 20.2533 208 25.5ZM191.539 25.5C191.539 29.3443 194.656 32.4608 198.5 32.4608C202.344 32.4608 205.461 29.3443 205.461 25.5C205.461 21.6557 202.344 18.5392 198.5 18.5392C194.656 18.5392 191.539 21.6557 191.539 25.5Z" fill="black"/>
<path id="Vector 3_7" d="M196 13L195.5 14.5H194.5L193.5 13.5L191.5 15L192 16.5L190.5 17.5L189 17L188 18.5L189.5 19.5L188 21H186V24H188V26.5H186L187 29H188V31.5H187L188 33.5L189.5 32.5L190.5 33.5V35.5L192.5 36.5L194 35.5L194.5 36.5L194 38L196 39L197 37L199.5 37.5L200.5 39.5H202.5V37.5L204 37L205.5 38L207.5 37L206.5 35.5L207.5 34.5L209 35.5L211 33.5L210 31.5V30H213L212 27.5L211 26.5V25H213V24L212 22.5H211L210.5 21L212 20.5L211 18.5L210 17.5H209H208L209 16.5L208 15L207.5 14.5H205.5H204V13.5V13L203 12H201.5L200.5 13.5L199.5 13L198.5 12L196 13Z" stroke="black" stroke-linejoin="round"/>
</g>
<g id="button_8">
<circle id="Ellipse 1_8" cx="402.5" cy="26.5" r="4.5" fill="#0F0000"/>
<path id="Ellipse 2_8" d="M412 26.5C412 31.7467 407.747 36 402.5 36C397.253 36 393 31.7467 393 26.5C393 21.2533 397.253 17 402.5 17C407.747 17 412 21.2533 412 26.5ZM395.539 26.5C395.539 30.3443 398.656 33.4608 402.5 33.4608C406.344 33.4608 409.461 30.3443 409.461 26.5C409.461 22.6557 406.344 19.5392 402.5 19.5392C398.656 19.5392 395.539 22.6557 395.539 26.5Z" fill="black"/>
<path id="Vector 3_8" d="M400 14L399.5 15.5H398.5L397.5 14.5L395.5 16L396 17.5L394.5 18.5L393 18L392 19.5L393.5 20.5L392 22H390V25H392V27.5H390L391 30H392V32.5H391L392 34.5L393.5 33.5L394.5 34.5V36.5L396.5 37.5L398 36.5L398.5 37.5L398 39L400 40L401 38L403.5 38.5L404.5 40.5H406.5V38.5L408 38L409.5 39L411.5 38L410.5 36.5L411.5 35.5L413 36.5L415 34.5L414 32.5V31H417L416 28.5L415 27.5V26H417V25L416 23.5H415L414.5 22L416 21.5L415 19.5L414 18.5H413H412L413 17.5L412 16L411.5 15.5H409.5H408V14.5V14L407 13H405.5L404.5 14.5L403.5 14L402.5 13L400 14Z" stroke="black" stroke-linejoin="round"/>
</g>
</g>
<path id="Vector 4" d="M58.5 77.5H132M147.5 77.5H220.5M259.5 77.5H327M351 77.5H421" stroke="black" stroke-width="2" stroke-linejoin="round"/>
<g id="Group 2">
<path id="Vector 5" d="M88.5 105H64.5L70 93L88.5 105Z" fill="#E02F2F" stroke="#E82525" stroke-linejoin="round"/>
<path id="Vector 6" d="M80 98.5L83.5 92.5H90.5V113H86.5V108H79L75.5 113H71.5L76 106M112.5 95.5V92.5H117V95.5M112.5 95.5H117M112.5 95.5V113H117V95.5M102 96.5H99L95.5 99.5V104L96.5 106L99 108.5H103L105.5 107L107 105V101L106.5 98.5L104 96.5H102ZM99 92L95.5 93.5L92.5 96.5L91 98.5L91.5 107L94.5 111L97.5 113H104L107 112L110.5 108.5L111.5 106V99.5L110 95.5L106.5 92.5L104 92H99ZM118 112.5H120.5V108L124.5 108.5L127.5 107L129.5 105L131 102.5V98L128.5 94L126 92.5H118V112.5ZM120.5 95.5V104.5H124.5L126.5 103L127.5 101V98.5L126 97L124 95.5H120.5Z" stroke="#130B0B" stroke-linejoin="round"/>
</g>
<g id="Group 3">
<circle id="Ellipse 3" cx="391" cy="221" r="9" fill="#E82525"/>
<path id="Vector 7" d="M390.5 216V221" stroke="#F1E8E8" stroke-linejoin="round"/>
<path id="Ellipse 4" d="M396 221.5C396 224.538 393.538 227 390.5 227C387.462 227 385 224.538 385 221.5C385 218.462 387.462 216 390.5 216C393.538 216 396 218.462 396 221.5ZM385.827 221.5C385.827 224.081 387.919 226.173 390.5 226.173C393.081 226.173 395.173 224.081 395.173 221.5C395.173 218.919 393.081 216.827 390.5 216.827C387.919 216.827 385.827 218.919 385.827 221.5Z" fill="#F5E9E9"/>
</g>
</g>
</svg>
